<svg version="1.1" viewBox="0.0 0.0 32.0 32.0" fill="none" stroke="none" stroke-linecap="square" stroke-miterlimit="10" xmlns:xlink="http://www.w3.org/1999/xlink" xmlns="http://www.w3.org/2000/svg"><clipPath id="g2fafe339933_0_12.0"><path d="m0 0l32.0 0l0 32.0l-32.0 0l0 -32.0z" clip-rule="nonzero"/></clipPath><g clip-path="url(#g2fafe339933_0_12.0)"><path fill="#000000" fill-opacity="0.0" d="m0 0l32.0 0l0 32.0l-32.0 0z" fill-rule="evenodd"/><path fill="#595959" d="m8.803478 10.424686l0 0c0 -0.5392389 0.43713856 -0.97637844 0.9763775 -0.97637844l8.409449 0c0.2589512 0 0.5072975 0.10286808 0.690403 0.2859745c0.18310738 0.18310642 0.2859745 0.4314518 0.2859745 0.69040394l0 0l0 0c0 0.539238 -0.4371376 0.9763775 -0.9763775 0.9763775l-8.409449 0c-0.5392389 0 -0.9763775 -0.4371395 -0.9763775 -0.9763775z" fill-rule="evenodd"/><path fill="#595959" d="m8.803478 16.002745l0 0c0 -0.539238 0.43713856 -0.9763775 0.9763775 -0.9763775l12.440945 0c0.2589512 0 0.5072975 0.10286808 0.690403 0.2859745c0.18310738 0.18310642 0.2859745 0.4314518 0.2859745 0.690403l0 0l0 0c0 0.539238 -0.4371376 0.9763775 -0.9763775 0.9763775l-12.440945 0l0 0c-0.5392389 0 -0.9763775 -0.4371395 -0.9763775 -0.9763775z" fill-rule="evenodd"/><path fill="#595959" d="m8.802362 21.574463l0 0c0 -0.539238 0.4371395 -0.9763775 0.9763775 -0.9763775l3.8425198 0l0 0c0.25895214 0 0.5072975 0.10286713 0.69040394 0.2859745c0.18310642 0.18310547 0.2859745 0.4314518 0.2859745 0.690403l0 0l0 0c0 0.539238 -0.4371395 0.9763775 -0.97637844 0.9763775l-3.8425198 0c-0.539238 0 -0.9763775 -0.4371395 -0.9763775 -0.9763775z" fill-rule="evenodd"/></g></svg>