<svg version="1.1" viewBox="0.0 0.0 32.0 32.0" fill="none" stroke="none" stroke-linecap="square" stroke-miterlimit="10" xmlns:xlink="http://www.w3.org/1999/xlink" xmlns="http://www.w3.org/2000/svg"><clipPath id="g2fafe339933_0_6.0"><path d="m0 0l32.0 0l0 32.0l-32.0 0l0 -32.0z" clip-rule="nonzero"/></clipPath><g clip-path="url(#g2fafe339933_0_6.0)"><path fill="#000000" fill-opacity="0.0" d="m0 0l32.0 0l0 32.0l-32.0 0z" fill-rule="evenodd"/><path fill="#ea9999" d="m13.477159 4.946442l-4.7646837 3.5933661l0 0c-0.7411132 0.55892277 -1.2245674 1.3853073 -1.3440075 2.2973576c-0.11944008 0.9120512 0.13491726 1.8350582 0.7071171 2.5659695l2.1574802 2.7559052l7.5590553 -5.7007875z" fill-rule="evenodd"/><path stroke="#595959" stroke-width="1.0" stroke-linejoin="round" stroke-linecap="butt" d="m13.477159 4.946442l-4.7646837 3.5933661l0 0c-0.7411132 0.55892277 -1.2245674 1.3853073 -1.3440075 2.2973576c-0.11944008 0.9120512 0.13491726 1.8350582 0.7071171 2.5659695l2.1574802 2.7559052l7.5590553 -5.7007875z" fill-rule="evenodd"/><path fill="#eeeeee" d="m24.802462 22.250517l-5.123308 3.8424816l0 0c-0.33970833 0.25477982 -0.7681732 0.36528587 -1.1911373 0.3072052c-0.422966 -0.058080673 -0.80578613 -0.27998734 -1.0642433 -0.6169052l-6.0806036 -7.9265003c-2.670288E-5 -3.6239624E-5 -2.002716E-5 -8.583069E-5 1.5258789E-5 -1.1253357E-4l7.6850233 -5.763668l0 0c3.6239624E-5 -2.670288E-5 8.583069E-5 -1.9073486E-5 1.1253357E-4 1.6212463E-5l6.080492 7.926486l0 0c0.5382099 0.7015934 0.40105057 1.7004452 -0.3063507 2.230997z" fill-rule="evenodd"/><path stroke="#595959" stroke-width="1.0" stroke-linejoin="round" stroke-linecap="butt" d="m24.802462 22.250517l-5.123308 3.8424816l0 0c-0.33970833 0.25477982 -0.7681732 0.36528587 -1.1911373 0.3072052c-0.422966 -0.058080673 -0.80578613 -0.27998734 -1.0642433 -0.6169052l-6.0806036 -7.9265003c-2.670288E-5 -3.6239624E-5 -2.002716E-5 -8.583069E-5 1.5258789E-5 -1.1253357E-4l7.6850233 -5.763668l0 0c3.6239624E-5 -2.670288E-5 8.583069E-5 -1.9073486E-5 1.1253357E-4 1.6212463E-5l6.080492 7.926486l0 0c0.5382099 0.7015934 0.40105057 1.7004452 -0.3063507 2.230997z" fill-rule="evenodd"/></g></svg>