<svg version="1.1" viewBox="0.0 0.0 32.0 32.0" fill="none" stroke="none" stroke-linecap="square" stroke-miterlimit="10" xmlns:xlink="http://www.w3.org/1999/xlink" xmlns="http://www.w3.org/2000/svg"><clipPath id="g2fafe339933_0_33.0"><path d="m0 0l32.0 0l0 32.0l-32.0 0l0 -32.0z" clip-rule="nonzero"/></clipPath><g clip-path="url(#g2fafe339933_0_33.0)"><path fill="#000000" fill-opacity="0.0" d="m0 0l32.0 0l0 32.0l-32.0 0z" fill-rule="evenodd"/><path fill="#000000" fill-opacity="0.0" d="m9.354331 11.569598l0 0c0 -1.2234583 0.9918089 -2.2152672 2.2152672 -2.2152672l8.860805 0l0 0c0.5875244 0 1.1509857 0.23339367 1.5664291 0.64883614c0.41544342 0.41544342 0.64883804 0.9789057 0.64883804 1.566431l0 8.860805c0 1.2234573 -0.99180984 2.2152672 -2.2152672 2.2152672l-8.860805 0c-1.2234583 0 -2.2152672 -0.99180984 -2.2152672 -2.2152672z" fill-rule="evenodd"/><path stroke="#595959" stroke-width="1.0" stroke-linejoin="round" stroke-linecap="butt" d="m9.354331 11.569598l0 0c0 -1.2234583 0.9918089 -2.2152672 2.2152672 -2.2152672l8.860805 0l0 0c0.5875244 0 1.1509857 0.23339367 1.5664291 0.64883614c0.41544342 0.41544342 0.64883804 0.9789057 0.64883804 1.566431l0 8.860805c0 1.2234573 -0.99180984 2.2152672 -2.2152672 2.2152672l-8.860805 0c-1.2234583 0 -2.2152672 -0.99180984 -2.2152672 -2.2152672z" fill-rule="evenodd"/><path fill="#000000" fill-opacity="0.0" d="m12.15748 13.438346l0 0c0 -0.7074022 0.57346344 -1.2808657 1.2808657 -1.2808657l5.123309 0l0 0c0.33970642 0 0.66549873 0.13494778 0.9057083 0.37515736c0.24020767 0.24020863 0.3751564 0.5660019 0.3751564 0.9057083l0 5.123309c0 0.7074013 -0.57346344 1.2808647 -1.2808647 1.2808647l-5.123309 0c-0.7074022 0 -1.2808657 -0.57346344 -1.2808657 -1.2808647z" fill-rule="evenodd"/><path fill="#000000" fill-opacity="0.0" d="m13.438346 19.84252c-0.7074022 0 -1.2808657 -0.57346344 -1.2808657 -1.2808647l0 -5.123309l0 0c0 -0.7074022 0.57346344 -1.2808657 1.2808657 -1.2808657m5.123309 0l0 0c0.33970642 0 0.66549873 0.13494778 0.9057083 0.37515736c0.24020767 0.24020863 0.3751564 0.5660019 0.3751564 0.9057083l0 5.123309c0 0.7074013 -0.57346344 1.2808647 -1.2808647 1.2808647" fill-rule="evenodd"/><path stroke="#93c47d" stroke-width="1.0" stroke-linejoin="round" stroke-linecap="butt" d="m13.438346 19.84252c-0.7074022 0 -1.2808657 -0.57346344 -1.2808657 -1.2808647l0 -5.123309l0 0c0 -0.7074022 0.57346344 -1.2808657 1.2808657 -1.2808657m5.123309 0l0 0c0.33970642 0 0.66549873 0.13494778 0.9057083 0.37515736c0.24020767 0.24020863 0.3751564 0.5660019 0.3751564 0.9057083l0 5.123309c0 0.7074013 -0.57346344 1.2808647 -1.2808647 1.2808647" fill-rule="evenodd"/><path fill="#f1c232" d="m14.078731 16.54989l0.591712 -0.76105785l-0.21117496 -0.9490309l0.9490299 9.536743E-7l0.59170246 -0.7610626l0.5917015 0.7610626l0.94903183 -9.536743E-7l-0.21117592 0.9490309l0.59171295 0.76105785l-0.85505295 0.42235756l-0.21118164 0.94903183l-0.8550358 -0.42236328l-0.85503674 0.42236328l-0.21118069 -0.94903183z" fill-rule="evenodd"/></g></svg>