<svg version="1.1" viewBox="0.0 0.0 960.0 540.0" fill="none" stroke="none" stroke-linecap="square" stroke-miterlimit="10" xmlns:xlink="http://www.w3.org/1999/xlink" xmlns="http://www.w3.org/2000/svg"><clipPath id="p.0"><path d="m0 0l960.0 0l0 540.0l-960.0 0l0 -540.0z" clip-rule="nonzero"/></clipPath><g clip-path="url(#p.0)"><path fill="#000000" fill-opacity="0.0" d="m0 0l960.0 0l0 540.0l-960.0 0z" fill-rule="evenodd"/><path fill="#000000" fill-opacity="0.0" d="m0 0l960.0 0l0 540.0l-960.0 0z" fill-rule="evenodd"/><path fill="#595959" d="m351.73438 276.71997l0 -9.328125l2.34375 0l0 -2.328125l4.65625 0l0 2.328125l2.328125 0l0 9.328125l-2.328125 0l0 -4.671875l-4.65625 0l0 4.671875l-2.34375 0zm2.34375 -7.0l4.65625 0l0 -2.234375l-4.65625 0l0 2.234375zm11.6484375 7.0l0 -11.65625l7.0 0l0 2.328125l2.328125 0l0 7.0l-2.328125 0l0 2.328125l-7.0 0zm2.34375 -2.328125l4.5625 0l0 -7.0l-4.5625 0l0 7.0zm11.6484375 2.328125l0 -11.65625l7.0 0l0 2.328125l2.328125 0l0 7.0l-2.328125 0l0 2.328125l-7.0 0zm2.34375 -2.328125l4.5625 0l0 -7.0l-4.5625 0l0 7.0zm20.976562 2.328125l0 -9.328125l2.34375 0l0 -2.328125l4.65625 0l0 2.328125l2.328125 0l0 9.328125l-2.328125 0l0 -4.671875l-4.65625 0l0 4.671875l-2.34375 0zm2.34375 -7.0l4.65625 0l0 -2.234375l-4.65625 0l0 2.234375zm11.6484375 7.0l0 -11.65625l2.34375 0l0 2.328125l2.328125 0l0 2.328125l2.328125 0l0 2.328125l2.328125 0l0 -6.984375l2.34375 0l0 11.65625l-2.34375 0l0 -2.328125l-2.328125 0l0 -2.34375l-2.328125 0l0 -2.328125l-2.328125 0l0 7.0l-2.34375 0zm25.652344 0l0 -11.65625l2.34375 0l0 11.65625l-2.34375 0zm6.9960938 0l0 -11.65625l2.34375 0l0 2.328125l2.328125 0l0 2.328125l2.328125 0l0 2.328125l-2.328125 0l0 -2.328125l-2.328125 0l0 7.0l-2.34375 0zm9.328125 0l0 -7.0l-2.328125 0l0 -2.328125l2.328125 0l0 -2.328125l2.34375 0l0 11.65625l-2.34375 0zm6.9960938 0l0 -9.328125l2.34375 0l0 -2.328125l4.65625 0l0 2.328125l2.328125 0l0 9.328125l-2.328125 0l0 -4.671875l-4.65625 0l0 4.671875l-2.34375 0zm2.34375 -7.0l4.65625 0l0 -2.234375l-4.65625 0l0 2.234375zm13.9921875 -2.328125l0 -2.328125l6.984375 0l0 2.328125l-6.984375 0zm-2.34375 7.0l0 -7.0l2.34375 0l0 7.0l-2.34375 0zm7.0 0l0 -2.34375l-2.328125 0l0 -2.328125l4.65625 0l0 4.671875l-2.328125 0zm-4.65625 2.328125l0 -2.328125l4.65625 0l0 2.328125l-4.65625 0zm11.6484375 0l0 -11.65625l7.0 0l0 2.328125l-4.65625 0l0 2.328125l4.65625 0l0 2.328125l-4.65625 0l0 2.34375l4.65625 0l0 2.328125l-7.0 0zm23.332031 0l0 -9.328125l-2.34375 0l0 -2.328125l7.0 0l0 2.328125l-2.328125 0l0 9.328125l-2.328125 0zm11.660156 0l0 -2.328125l-2.34375 0l0 -7.0l2.34375 0l0 -2.328125l4.65625 0l0 2.328125l2.328125 0l0 7.0l-2.328125 0l0 2.328125l-4.65625 0zm0 -2.421875l4.65625 0l0 -6.8125l-4.65625 0l0 6.8125zm20.976562 2.421875l0 -11.65625l7.0 0l0 2.328125l2.328125 0l0 7.0l-2.328125 0l0 2.328125l-7.0 0zm2.34375 -7.0l4.5625 0l0 -2.328125l-4.5625 0l0 2.328125zm0 4.671875l4.5625 0l0 -2.34375l-4.5625 0l0 2.34375zm11.6484375 2.328125l0 -11.65625l7.0 0l0 2.328125l-4.65625 0l0 2.328125l4.65625 0l0 2.328125l-4.65625 0l0 2.34375l4.65625 0l0 2.328125l-7.0 0zm14.003906 -9.328125l0 -2.328125l6.984375 0l0 2.328125l-6.984375 0zm-2.34375 7.0l0 -7.0l2.34375 0l0 7.0l-2.34375 0zm7.0 0l0 -2.34375l-2.328125 0l0 -2.328125l4.65625 0l0 4.671875l-2.328125 0zm-4.65625 2.328125l0 -2.328125l4.65625 0l0 2.328125l-4.65625 0zm11.6484375 0l0 -11.65625l2.34375 0l0 11.65625l-2.34375 0zm6.9960938 0l0 -11.65625l2.34375 0l0 2.328125l2.328125 0l0 2.328125l2.328125 0l0 2.328125l2.328125 0l0 -6.984375l2.34375 0l0 11.65625l-2.34375 0l0 -2.328125l-2.328125 0l0 -2.34375l-2.328125 0l0 -2.328125l-2.328125 0l0 7.0l-2.34375 0z" fill-rule="nonzero"/></g></svg>